<?xml version="1.0" encoding="UTF-8" standalone="no"?>
<!-- Created with Inkscape (http://www.inkscape.org/) -->

<svg
   width="111.3896mm"
   height="126.92974mm"
   viewBox="0 0 111.3896 126.92974"
   version="1.1"
   id="svg1"
   xml:space="preserve"
   inkscape:version="1.4.2 (2aeb623e1d, 2025-05-12)"
   sodipodi:docname="criptojourney-icon-white.svg"
   xmlns:inkscape="http://www.inkscape.org/namespaces/inkscape"
   xmlns:sodipodi="http://sodipodi.sourceforge.net/DTD/sodipodi-0.dtd"
   xmlns="http://www.w3.org/2000/svg"
   xmlns:svg="http://www.w3.org/2000/svg"><sodipodi:namedview
     id="namedview1"
     pagecolor="#505050"
     bordercolor="#eeeeee"
     borderopacity="1"
     inkscape:showpageshadow="false"
     inkscape:pageopacity="0"
     inkscape:pagecheckerboard="false"
     inkscape:deskcolor="#505050"
     inkscape:document-units="mm"
     showborder="true"
     borderlayer="true"
     inkscape:zoom="0.70710678"
     inkscape:cx="242.53762"
     inkscape:cy="236.88077"
     inkscape:window-width="1420"
     inkscape:window-height="1002"
     inkscape:window-x="726"
     inkscape:window-y="0"
     inkscape:window-maximized="0"
     inkscape:current-layer="layer1" /><defs
     id="defs1" /><g
     inkscape:label="Layer 1"
     inkscape:groupmode="layer"
     id="layer1"
     transform="translate(-49.34478,-85.495545)"><g
       inkscape:label="Image"
       id="g1"
       transform="matrix(0.26458333,0,0,0.26458333,-112.93544,63.661452)"><path
         style="fill:#f9f9f9;stroke-width:1.84407"
         d="m 666.35949,478.88373 -52.09492,-27.56249 -0.40678,-113.1345 c -0.22373,-62.22397 -0.43119,-119.01353 -0.46102,-126.19901 l -0.0542,-13.06451 99.57966,-55.26869 C 767.69104,113.25674 815.12965,87.066587 818.34137,85.454197 l 5.83948,-2.93164 50.40459,27.768043 c 27.72252,15.27242 74.88452,41.33423 104.80452,57.91512 l 54.39994,30.14709 0.4746,118.60102 c 0.2611,65.23056 -0.1538,119.67958 -0.922,120.99783 -0.984,1.68869 -17.3326,-11.23745 -55.33554,-43.75169 l -53.939,-46.14848 -0.2166,-25.07928 c -0.1191,-13.79361 -0.7415,-33.35408 -1.3831,-43.4677 l -1.1664,-18.38843 -47.94573,-30.94652 c -28.71184,-18.53201 -49.05542,-30.53357 -50.71187,-29.91715 -1.52135,0.56615 -24.42263,14.82467 -50.89173,31.6856 l -48.12563,30.65623 -1.20319,35.92554 c -0.66174,19.75905 -1.30625,69.19278 -1.43223,109.85274 -0.12598,40.65994 -0.74835,79.36016 -1.38305,86.00044 l -1.154,12.07326 z"
         id="path2" /><path
         style="fill:#f9f9f9;stroke-width:1.84407"
         d="m 826.33237,465.42288 v -96.83415 l 5.99322,3.69033 c 49.71798,30.61386 69.71067,40.65891 136.46097,68.56291 25.1024,10.49368 45.63814,19.55047 45.63514,20.1262 0,0.85902 -59.65394,33.02039 -171.85439,92.65934 l -16.23494,8.62952 z"
         id="path3" /></g></g></svg>
