<?xml version="1.0" encoding="UTF-8" standalone="no"?>
<!-- Created with Inkscape (http://www.inkscape.org/) -->

<svg
   version="1.1"
   id="svg1"
   width="651"
   height="99.945488"
   viewBox="0 0 651 99.945488"
   sodipodi:docname="criptojurney-logo-white.svg"
   inkscape:version="1.4.2 (2aeb623e1d, 2025-05-12)"
   xmlns:inkscape="http://www.inkscape.org/namespaces/inkscape"
   xmlns:sodipodi="http://sodipodi.sourceforge.net/DTD/sodipodi-0.dtd"
   xmlns="http://www.w3.org/2000/svg"
   xmlns:svg="http://www.w3.org/2000/svg">
  <defs
     id="defs1" />
  <sodipodi:namedview
     id="namedview1"
     pagecolor="#505050"
     bordercolor="#eeeeee"
     borderopacity="1"
     inkscape:showpageshadow="0"
     inkscape:pageopacity="0"
     inkscape:pagecheckerboard="0"
     inkscape:deskcolor="#505050"
     inkscape:zoom="1.158377"
     inkscape:cx="328.47683"
     inkscape:cy="56.544631"
     inkscape:window-width="1920"
     inkscape:window-height="1002"
     inkscape:window-x="0"
     inkscape:window-y="0"
     inkscape:window-maximized="1"
     inkscape:current-layer="g1" />
  <g
     inkscape:groupmode="layer"
     inkscape:label="Image"
     id="g1"
     transform="translate(-54.367233,-213.05452)">
    <path
       style="fill:#ffffff"
       d="m 98.999103,312.29855 c -0.91091,-0.91091 -0.69298,-36.58163 0.23264,-38.07932 0.49582,-0.80225 1.586297,-0.5425 3.670437,0.87429 3.9373,2.67655 20.2764,10.86314 28.71505,14.38746 3.7125,1.55048 6.74295,3.08906 6.73433,3.41905 -0.0144,0.54979 -37.16998,20.09998 -38.20053,20.09998 -0.247757,0 -0.766127,-0.31566 -1.151927,-0.70146 z m -33.38187,-16.15727 -11.25,-5.60035 0.0077,-26.52046 0.0077,-26.52046 4.242297,-2.44682 c 2.333264,-1.34574 12.091891,-6.84598 21.685833,-12.22274 l 17.44354,-9.77593 12.556457,6.59126 c 6.90605,3.6252 17.16896,9.08475 22.80646,12.13235 l 10.25,5.54109 v 25.3404 c 0,14.82305 -0.3832,25.34039 -0.92328,25.34039 -1.10695,0 -4.96373,-3.09966 -15.32672,-12.31796 l -7.75,-6.89393 -0.0153,-8.14406 c -0.008,-4.47923 -0.34592,-8.65407 -0.75,-9.27742 -0.96969,-1.49591 -19.375567,-13.36663 -20.725317,-13.36663 -0.87722,0 -17.30857,11.47017 -19.357487,13.5128 -0.358527,0.35743 -0.876868,11.80513 -1.151868,25.43934 l -0.5,24.78948 z m 124.719217,-15.4605 c -2.49193,-0.69315 -5.59418,-2.0051 -6.89389,-2.91545 -2.32927,-1.63149 -6.0559,-6.55345 -6.06874,-8.01532 -0.0155,-1.76035 8.1863,-0.5908 12.69049,1.80963 5.42935,2.89348 9.36707,2.71335 15.21707,-0.69608 l 3.41414,-1.9898 2.52518,2.52518 c 2.51043,2.51043 2.51385,2.53789 0.58585,4.70114 -4.06499,4.561 -13.95507,6.67107 -21.4701,4.5807 z m 182.74828,0.18808 c -5.07858,-1.14273 -8.67213,-3.11388 -11.90388,-6.52957 -8.19077,-8.65694 -6.17546,-24.62432 4.01159,-31.78405 3.3382,-2.34617 5.54433,-3.04765 10.59645,-3.36934 8.26944,-0.52656 12.89494,1.07809 18.09385,6.27699 7.85321,7.85321 8.23026,19.80103 0.89531,28.37027 -4.9434,5.77525 -14.09875,8.74457 -21.69332,7.0357 z m 12.2825,-9.76024 c 6.83487,-4.75073 7.54901,-14.95948 1.44932,-20.71804 -5.73399,-5.41331 -13.97388,-5.12118 -18.84526,0.66812 -10.10869,12.0135 4.588,28.95238 17.39594,20.04992 z m 25,9.60856 c -3.84274,-1.33636 -8,-3.84259 -8,-4.82286 0,-0.34353 0.91857,-1.79237 2.04127,-3.21965 l 2.04128,-2.59506 3.20872,1.95646 c 3.63188,2.21447 7.72903,2.54364 9.50873,0.76394 0.66,-0.66 1.2,-3.135 1.2,-5.5 v -4.3 h 4.5 4.5 l -0.0147,4.75 c -0.008,2.6125 -0.57061,5.83162 -1.25,7.1536 -2.84175,5.52956 -10.92898,8.18053 -17.73526,5.81357 z m 42.82055,-0.0741 c -10.24322,-2.84135 -15.32231,-9.71164 -15.31794,-20.72 0.002,-5.50166 0.4532,-7.25787 2.75854,-10.74147 1.51576,-2.29046 4.63172,-5.40583 6.92436,-6.92302 3.70331,-2.45074 5.08751,-2.75854 12.40532,-2.75854 7.56259,0 8.59185,0.24922 12.57303,3.0444 4.57773,3.21403 8.18639,8.7947 9.18583,14.2056 l 0.60031,3.25 h -4.39555 c -4.07858,0 -4.44344,-0.21806 -5.05971,-3.02395 -2.16764,-9.86918 -14.93712,-13.80242 -22.35972,-6.88721 -7.02269,6.54263 -4.87827,18.79613 3.90442,22.31026 5.17202,2.06944 6.46363,2.01987 11.55187,-0.4433 2.78464,-1.34803 4.78124,-3.22112 5.86264,-5.5 1.46236,-3.08171 2.06781,-3.4558 5.59296,-3.4558 4.31352,0 4.72872,0.81691 2.88947,5.6849 -3.52738,9.33599 -16.28548,14.96233 -27.11583,11.95813 z m 47.86325,-0.0354 c -2.09891,-0.77963 -4.65455,-2.17621 -5.6792,-3.1035 -2.64369,-2.39251 -5.0046,-7.77294 -5.0046,-11.4053 0,-2.93983 0.20182,-3.09887 3.93261,-3.09887 3.22486,0 4.04604,0.40493 4.56285,2.25 1.90118,6.78735 5.78769,9.48227 11.99544,8.31768 3.7006,-0.69423 5.89729,-3.1302 7.04978,-7.81768 0.59329,-2.41307 1.15293,-2.75 4.56773,-2.75 3.5916,0 3.89159,0.21493 3.89159,2.78811 0,4.15902 -4.08582,11.42877 -7.53395,13.40488 -4.28921,2.45814 -13.08846,3.15817 -17.78225,1.41468 z m -280.6838,-9.10767 v -9.5 l 16.25,0.036 16.25,0.036 -2.86776,2.3455 -2.86776,2.34549 3.94361,5.86854 c 2.16899,3.2277 4.27354,6.43104 4.67678,7.11854 0.54628,0.93139 -0.54684,1.25 -4.28859,1.25 -5.01831,0 -5.02456,-0.004 -9.09628,-6 -3.95796,-5.82835 -4.2022,-6 -8.53726,-6 h -4.46274 v 6 6 h -4.5 -4.5 z m 44,0.4425 v -9.0575 l 4.25,0.3075 4.25,0.3075 0.28893,8.75 0.28893,8.75 h -4.53893 -4.53893 z m 19,-0.4425 v -9.5 h 9.86514 c 8.4661,0 10.23881,-0.29393 12.5,-2.07258 3.30153,-2.59699 3.61252,-7.94976 0.63486,-10.92742 -1.58975,-1.58974 -3.33334,-2 -8.5,-2 h -6.5 v 6 6 h -4 -4 v -10.10533 -10.10532 l 11.75,0.3556 c 9.56672,0.28953 12.40033,0.7335 15.25,2.38935 8.80949,5.11892 9.20322,18.64113 0.72384,24.8594 -2.05527,1.50721 -4.91168,2.17485 -11,2.57108 l -8.22384,0.53522 -0.29991,5.75 -0.2999,5.75 h -3.9501 -3.95009 z m 49,-7.5 v -17 h -6.5 -6.5 v -4 -4 h 16.98095 16.98094 l 0.6269,2.49776 c 1.15571,4.60473 0.0327,5.50224 -6.88481,5.50224 h -6.35879 l 0.45492,13.41351 c 0.2502,7.37743 0.15215,15.02743 -0.21791,17 -0.63734,3.3973 -0.88144,3.58649 -4.62752,3.58649 h -3.95468 z m 205,7.64358 v -9.35642 l 15.75,-0.53964 c 8.6625,-0.29681 15.975,-0.32313 16.25,-0.0585 0.275,0.26462 -0.7375,1.54627 -2.25,2.8481 -1.5125,1.30183 -2.75,2.66331 -2.75,3.02553 0,0.36221 2.00993,3.53379 4.46651,7.04796 l 4.4665,6.3894 -5.2165,-0.0208 -5.21651,-0.0208 -3.81218,-5.97925 c -3.72005,-5.83475 -3.91942,-5.97924 -8.25,-5.97924 h -4.43782 v 6 6 h -4.5 -4.5 z m 43,-0.64358 v -10 h 4.5 4.5 v 10 10 h -4.5 -4.5 z m 24.5,3.29152 c -2.75,-3.63945 -6.27643,-8.34392 -7.83651,-10.45436 l -2.83651,-3.83716 h 5.4268 c 5.12689,0 5.57378,0.20658 8.08651,3.73812 l 2.65971,3.73812 v -3.73812 c 0,-3.69447 0.0467,-3.73812 4,-3.73812 h 4 v 10.5 10.5 l -4.25,-0.0456 c -4.05037,-0.0435 -4.48486,-0.35647 -9.25,-6.66284 z m 25.5,-3.29152 v -10 h 4 c 3.6,0 4,-0.25 4,-2.5 0,-2.25 -0.4,-2.5 -4,-2.5 h -4 v -8.5 -8.5 h 15.5 15.5 v 4 4 h -11.5 -11.5 v 4.5 4.5 h 10 10 v 3.46379 3.46379 l -9.75,0.28621 -9.75,0.28621 -0.30226,5.25 -0.30226,5.25 h 11.55226 11.55226 v 3.5 3.5 h -15.5 -15.5 z m 51,3.41826 c 0,-5.70647 -0.46127,-7.36876 -3.4686,-12.5 l -3.4686,-5.91826 h 4.13986 c 2.37298,0 4.88639,0.6756 5.88901,1.58296 1.60687,1.4542 1.83984,1.41353 2.86393,-0.5 0.84285,-1.57487 2.08539,-2.08296 5.09398,-2.08296 h 3.97921 l -3.0144,5.97148 c -2.5002,4.95287 -3.01439,7.17041 -3.01439,13 v 7.02852 h -4.5 -4.5 z m -505.33334,-8.08493 c -1.24655,-1.24655 -0.67284,-10.38278 0.88639,-14.11545 4.74992,-11.37097 18.6613,-16.47907 30.38939,-11.15865 7.11618,3.22824 7.37406,3.65926 4.46847,7.46868 l -2.53704,3.32623 -3.57648,-2.42707 c -2.57648,-1.74845 -4.9396,-2.42707 -8.45162,-2.42707 -4.10772,0 -5.43211,0.5116 -8.41331,3.25 -3.81555,3.50478 -5.71531,9.08578 -4.74472,13.93873 0.54059,2.70291 0.40969,2.81127 -3.39608,2.81127 -2.17708,0 -4.25833,-0.3 -4.625,-0.66667 z m 88.33334,-10.33333 v -4 h 4.5 4.5 v 4 4 h -4.5 -4.5 z m 156,-2.45619 v -6.45619 l -7.25,-0.29381 -7.25,-0.29381 v -3.5 -3.5 l 11.75,-0.28174 11.75,-0.28173 v 10.53173 10.53174 h -4.5 -4.5 z m 70,-4.04381 v -10.5 h 4 4 v 10.5 10.5 h -4 -4 z m 28,0 v -10.5 h 4 4 v 10.5 10.5 h -4 -4 z m -298,-0.4425 v -10.0575 l 10.25,0.0239 c 5.6375,0.0131 12.05,0.43923 14.25,0.94691 6.96827,1.60802 11.83453,9.57588 10.091,16.52266 -0.55186,2.19879 -1.16764,2.50657 -5.0149,2.50657 h -4.38579 l 0.53952,-4.02244 c 0.83349,-6.21412 -1.34051,-7.97756 -9.83492,-7.97756 h -6.79511 l -0.2999,5.75 -0.2999,5.75 -4.25,0.3075 -4.25,0.3075 z m 317,-0.0575 v -10 l 10.25,0.006 c 12.10177,0.007 17.09993,1.19051 20.84765,4.93823 3.21783,3.21782 4.64511,9.13058 3.04943,12.63272 -0.8956,1.96564 -1.84593,2.42347 -5.03049,2.42347 h -3.92628 l 0.52094,-3.8839 c 0.80138,-5.97474 -1.89276,-8.1161 -10.21125,-8.1161 h -6.5 v 6 6 h -4.5 -4.5 z m 43,-0.5575 v -9.5575 l 4.18976,0.3075 c 3.94262,0.28936 4.58738,0.8089 10.93037,8.8075 3.70734,4.675 6.77194,8.8375 6.81024,9.25 0.0383,0.4125 -2.13223,0.75 -4.82338,0.75 -3.42686,0 -5.06549,-0.44947 -5.46862,-1.5 -0.31658,-0.825 -1.03973,-1.5 -1.60699,-1.5 -0.56726,0 -1.03138,0.675 -1.03138,1.5 0,1.11111 -1.16667,1.5 -4.5,1.5 h -4.5 z m 30,-0.4425 v -9 h 4 4 v 9 9 h -4 -4 z m 58.98082,-1.23176 c -1.91445,-3.42747 -3.63082,-6.57747 -3.81416,-7 -0.18333,-0.42253 1.69044,-0.76824 4.16394,-0.76824 4.48931,0 4.50361,0.0113 8.08333,6.41248 1.97234,3.52687 3.58607,6.67687 3.58607,7 0,0.32314 -1.92113,0.58752 -4.26918,0.58752 -4.19648,0 -4.32844,-0.10611 -7.75,-6.23176 z m 21.64385,2.98176 c 4.80791,-9.32302 6.18682,-10.75 10.38787,-10.75 2.1931,0 3.98746,0.24493 3.98746,0.5443 0,0.29936 -1.67085,3.44936 -3.713,7 -3.66314,6.36903 -3.77089,6.4557 -8.02568,6.4557 h -4.31268 z m -426.62467,-6.1925 v -4.5575 h 4.5575 4.55749 l -0.30749,4.25 c -0.30601,4.22934 -0.32816,4.25149 -4.5575,4.5575 l -4.25,0.3075 z"
       id="path8" />
  </g>
</svg>
